<svg width="375" height="139" viewBox="0 0 375 139" fill="none" xmlns="http://www.w3.org/2000/svg">
<g clip-path="url(#clip0)">
<rect width="375" height="812" transform="translate(0 -186)" />
<path d="M2.11112 53.986C9.59957 182.839 109.372 178.601 204.111 144.373C60.4863 95.9392 330.863 50.7242 377.111 53.986V585.986H2.11112C2.11112 585.986 -12.3889 -195.514 2.11112 53.986Z" fill="#807CB2"/>
<g filter="url(#filter0_d)">
<path d="M2.11111 24.486C67.6111 -79.514 251.111 199.986 377.111 125.986C503.111 51.9861 377.111 533.487 377.111 533.487H2.11111C2.11111 533.487 -63.3889 128.486 2.11111 24.486Z" fill="#110C4A"/>
<path d="M2.53419 24.7525C10.6611 11.8488 20.5854 4.93502 31.9662 2.51216C43.3685 0.0847346 56.2987 2.15103 70.4466 7.34599C97.7306 17.3644 129.329 38.9316 162.851 61.8119C164.112 62.6726 165.376 63.5352 166.642 64.399C201.539 88.2052 238.382 112.989 274.389 127.186C310.402 141.384 345.675 145.028 377.364 126.417C393.044 117.209 404.622 116.741 412.998 122.658C421.437 128.619 426.825 141.178 429.774 158.523C435.666 193.173 431.741 246.353 423.866 301.916C415.994 357.46 404.184 415.321 394.342 459.299C389.421 481.287 384.992 499.804 381.793 512.822C380.194 519.332 378.902 524.467 378.011 527.974C377.565 529.728 377.219 531.074 376.984 531.983C376.871 532.42 376.784 532.756 376.725 532.987H2.53728C2.50745 532.8 2.46791 532.552 2.41905 532.243C2.2972 531.474 2.11739 530.332 1.8856 528.836C1.42203 525.846 0.750587 521.445 -0.0807667 515.808C-1.74348 504.533 -4.04579 488.31 -6.60395 468.516C-11.7204 428.928 -17.8598 375.063 -21.9527 317.951C-26.0457 260.835 -28.0911 200.485 -25.0226 147.921C-21.9524 95.3296 -13.7662 50.6341 2.53419 24.7525Z" stroke="black"/>
</g>
</g>
<defs>
<filter id="filter0_d" x="-31" y="1" width="468.111" height="540.487" filterUnits="userSpaceOnUse" color-interpolation-filters="sRGB">
<feFlood flood-opacity="0" result="BackgroundImageFix"/>
<feColorMatrix in="SourceAlpha" type="matrix" values="0 0 0 0 0 0 0 0 0 0 0 0 0 0 0 0 0 0 127 0"/>
<feOffset dy="4"/>
<feGaussianBlur stdDeviation="2"/>
<feColorMatrix type="matrix" values="0 0 0 0 0 0 0 0 0 0 0 0 0 0 0 0 0 0 0.25 0"/>
<feBlend mode="normal" in2="BackgroundImageFix" result="effect1_dropShadow"/>
<feBlend mode="normal" in="SourceGraphic" in2="effect1_dropShadow" result="shape"/>
</filter>
<clipPath id="clip0">
<rect width="375" height="812" transform="translate(0 -186)"/>
</clipPath>
</defs>
</svg>
